<?xml version="1.0" encoding="UTF-8" standalone="no"?>
<!-- Creator: fig2dev Version 3.2.9a -->
<!-- CreationDate: 2025-04-12 21:01:58 -->
<!-- Magnification: 1 -->
<svg	xmlns="http://www.w3.org/2000/svg"
	xmlns:xlink="http://www.w3.org/1999/xlink"
	width="506pt" height="273pt"
	viewBox="-12 2067 8424 4545">
<g fill="none">
<!-- Circle -->
<circle cx="4200" cy="3600" r="225" fill="#ff00ff"
	stroke="#ff00ff" stroke-width="8px"/>
<!-- Line -->
<rect x="3600" y="2400" width="600" height="600"
	stroke="#000000" stroke-width="8px"/>
<!-- Line -->
<rect x="4200" y="2400" width="600" height="600"
	stroke="#000000" stroke-width="8px"/>
<!-- Line -->
<rect x="3000" y="3000" width="600" height="600"
	stroke="#000000" stroke-width="8px"/>
<!-- Line -->
<rect x="3600" y="3000" width="600" height="600"
	stroke="#000000" stroke-width="8px"/>
<!-- Line -->
<rect x="4200" y="3000" width="600" height="600"
	stroke="#000000" stroke-width="8px"/>
<!-- Line -->
<rect x="4800" y="3000" width="600" height="600"
	stroke="#000000" stroke-width="8px"/>
<!-- Line -->
<rect x="3000" y="3600" width="600" height="600"
	stroke="#000000" stroke-width="8px"/>
<!-- Line -->
<rect x="3600" y="3600" width="600" height="600"
	stroke="#000000" stroke-width="8px"/>
<!-- Line -->
<rect x="4200" y="3600" width="600" height="600"
	stroke="#000000" stroke-width="8px"/>
<!-- Line -->
<rect x="4800" y="3600" width="600" height="600"
	stroke="#000000" stroke-width="8px"/>
<!-- Line -->
<rect x="3600" y="4200" width="600" height="600"
	stroke="#000000" stroke-width="8px"/>
<!-- Line -->
<rect x="4200" y="4200" width="600" height="600"
	stroke="#000000" stroke-width="8px"/>
<!-- Line -->
<rect x="4800" y="4200" width="600" height="600"
	stroke="#000000" stroke-width="8px"/>
<!-- Line -->
<rect x="4800" y="2400" width="600" height="600"
	stroke="#000000" stroke-width="8px"/>
<!-- Line -->
<rect x="3000" y="4200" width="600" height="600"
	stroke="#000000" stroke-width="8px"/>
<!-- Line -->
<rect x="3000" y="2400" width="600" height="600"
	stroke="#000000" stroke-width="8px"/>
<!-- Line -->
<rect x="2400" y="6000" width="600" height="600"
	stroke="#000000" stroke-width="8px"/>
<!-- Line -->
<rect x="1800" y="6000" width="600" height="600"
	stroke="#000000" stroke-width="8px"/>
<!-- Line -->
<rect x="600" y="6000" width="600" height="600"
	stroke="#000000" stroke-width="8px"/>
<!-- Line -->
<rect x="0" y="6000" width="600" height="600"
	stroke="#000000" stroke-width="8px"/>
<!-- Line -->
<rect x="5400" y="6000" width="600" height="600"
	stroke="#000000" stroke-width="8px"/>
<!-- Line -->
<rect x="6000" y="6000" width="600" height="600"
	stroke="#000000" stroke-width="8px"/>
<!-- Line -->
<rect x="7200" y="6000" width="600" height="600"
	stroke="#000000" stroke-width="8px"/>
<!-- Line -->
<rect x="7800" y="6000" width="600" height="600"
	stroke="#000000" stroke-width="8px"/>
<!-- Line -->
<rect x="6600" y="6000" width="600" height="600" fill="#ff7f7f"
	stroke="#000000" stroke-width="8px"/>
<!-- Line -->
<rect x="1200" y="6000" width="600" height="600" fill="#7f7fff"
	stroke="#000000" stroke-width="8px"/>
<!-- Line -->
<defs>
<clipPath id="cp0">
	<path clip-rule="evenodd" d="M -12,2067 H 8412 V 6612 H -12 z
		M 1724,6161 1639,6076 1475,6300 1500,6325z"/>
</clipPath>
</defs>
<polyline points=" 5700,2100 1500,6300" clip-path="url(#cp0)"
	stroke="#000000" stroke-width="30px"/>
<!-- Forward arrow to point 1500,6300 -->
<polygon points=" 1639,6076 1511,6289 1724,6161 1639,6076"
	stroke="#000000" stroke-width="8px" stroke-miterlimit="8" fill="#000000"/>
<!-- Line -->
<defs>
<clipPath id="cp1">
	<path clip-rule="evenodd" d="M -12,2067 H 8412 V 6612 H -12 z
		M 6761,6076 6676,6161 6900,6325 6925,6300z"/>
</clipPath>
</defs>
<polyline points=" 2700,2100 6900,6300" clip-path="url(#cp1)"
	stroke="#000000" stroke-width="30px"/>
<!-- Forward arrow to point 6900,6300 -->
<polygon points=" 6676,6161 6889,6289 6761,6076 6676,6161"
	stroke="#000000" stroke-width="8px" stroke-miterlimit="8" fill="#000000"/>
</g>
</svg>
